{"title":"Gr8 Women Awards 2012 4th Mar HQ XviD","uid":7081708,"size":1204208840,"categoryP":"video","categoryS":"tv_shows","magnet":"?xt=urn:btih:1523fea57f688c3d5fec079c9064c760e6f1f6c7&amp;dn=Gr8+Women+Awards+2012+4th+Mar+HQ+XviD&amp;tr=udp%3A%2F%2Ftracker.openbittorrent.com%3A80&amp;tr=udp%3A%2F%2Fopen.demonii.com%3A1337&amp;tr=udp%3A%2F%2Ftracker.coppersurfer.tk%3A6969&amp;tr=udp%3A%2F%2Fexodus.desync.com%3A6969","seeders":4,"leechers":0,"uploader":"arsenal_rocks","files":2,"time":1331052435,"description":" &lt;a href=&quot;http://i.minus.com/j5amBceGQT8t4.png&quot; rel=&quot;nofollow&quot; target=&quot;_NEW&quot;&gt;http://i.minus.com/j5amBceGQT8t4.png&lt;/a&gt;\n\nGeneral\nComplete name                            : Gr8 Women Awards 2012 4th Mar HQ XviD.avi\nFormat                                   : AVI\nFormat/Info                              : Audio Video Interleave\nFormat profile                           : OpenDML\nFile size                                : 1.12 GiB\nDuration                                 : 1h 42mn\nOverall bit rate                         : 1 560 Kbps\nWriting application                      : Lavf52.93.0\n\nVideo\nID                                       : 0\nFormat                                   : MPEG-4 Visual\nFormat profile                           : Simple@L1\nFormat settings, BVOP                    : No\nFormat settings, QPel                    : No\nFormat settings, GMC                     : No warppoints\nFormat settings, Matrix                  : Default (H.263)\nCodec ID                                 : FMP4\nDuration                                 : 1h 42mn\nBit rate                                 : 1 414 Kbps\nWidth                                    : 512 pixels\nHeight                                   : 384 pixels\nDisplay aspect ratio                     : 4:3\nFrame rate                               : 29.970 fps\nColor space                              : YUV\nChroma subsampling                       : 4:2:0\nBit depth                                : 8 bits\nScan type                                : Progressive\nCompression mode                         : Lossy\nBits/(Pixel*Frame)                       : 0.240\nStream size                              : 1.02 GiB (91%)\nWriting library                          : Lavc52.108.0\n\nAudio\nID                                       : 1\nFormat                                   : MPEG Audio\nFormat version                           : Version 1\nFormat profile                           : Layer 2\nCodec ID                                 : 50\nDuration                                 : 1h 42mn\nBit rate mode                            : Constant\nBit rate                                 : 128 Kbps\nChannel(s)                               : 2 channels\nSampling rate                            : 48.0 KHz\nCompression mode                         : Lossy\nStream size                              : 94.2 MiB (8%)\nAlignment                                : Aligned on interleaves\nInterleave, duration                     : 24 ms (0.72 video frame)\n\n &lt;a href=&quot;\nhttp://i.minus.com/jN21kHgxBBcn8.jpg&quot; rel=&quot;nofollow&quot; target=&quot;_NEW&quot;&gt;\nhttp://i.minus.com/jN21kHgxBBcn8.jpg&lt;/a&gt;","torrent":{"xt":"urn:btih:1523fea57f688c3d5fec079c9064c760e6f1f6c7","amp;dn":"Gr8+Women+Awards+2012+4th+Mar+HQ+XviD","amp;tr":["udp%3A%2F%2Ftracker.openbittorrent.com%3A80","udp%3A%2F%2Fopen.demonii.com%3A1337","udp%3A%2F%2Ftracker.coppersurfer.tk%3A6969","udp%3A%2F%2Fexodus.desync.com%3A6969"],"infoHash":"1523fea57f688c3d5fec079c9064c760e6f1f6c7","infoHashBuffer":{"type":"Buffer","data":[21,35,254,165,127,104,140,61,95,236,7,156,144,100,199,96,230,241,246,199]},"announce":[],"urlList":[]}}